<?xml version="1.0" encoding="UTF-8" standalone="no"?>
<svg
   version="1.0"
   width="100pt"
   height="100pt"
   viewBox="0 0 128 128"
   preserveAspectRatio="xMidYMid meet"
   id="svg135"
   sodipodi:docname="avatar.svg"
   inkscape:version="1.2.2 (b0a8486541, 2022-12-01)"
   xmlns:inkscape="http://www.inkscape.org/namespaces/inkscape"
   xmlns:sodipodi="http://sodipodi.sourceforge.net/DTD/sodipodi-0.dtd"
   xmlns="http://www.w3.org/2000/svg"
   xmlns:svg="http://www.w3.org/2000/svg">
  <defs
     id="defs139" />
  <sodipodi:namedview
     id="namedview137"
     pagecolor="#ffffff"
     bordercolor="#000000"
     borderopacity="0.25"
     inkscape:showpageshadow="2"
     inkscape:pageopacity="0.0"
     inkscape:pagecheckerboard="0"
     inkscape:deskcolor="#ffffff"
     inkscape:document-units="pt"
     showgrid="false"
     inkscape:zoom="8.654987"
     inkscape:cx="22.934754"
     inkscape:cy="95.320767"
     inkscape:window-width="1896"
     inkscape:window-height="1019"
     inkscape:window-x="0"
     inkscape:window-y="0"
     inkscape:window-maximized="1"
     inkscape:current-layer="svg135" />
  <path
     d="m 74.5,8.6 c -1.6,0.7 -2.3,1.4 -1.5,1.5 0.8,0 0.4,0.5 -1,0.9 l -2.5,0.8 2.6,0.1 C 74.9,12 78.5,9.8 77.9,8.3 77.6,7.7 76.4,7.8 74.5,8.6 Z"
     id="path93"
     style="fill:#007bb9;stroke:none;stroke-width:0.1" />
  <path
     d="m 59.3,9.7 c 0.9,0.2 2.3,0.2 3,0 0.6,-0.3 -0.1,-0.5 -1.8,-0.5 -1.6,0 -2.2,0.2 -1.2,0.5 z"
     id="path95"
     style="fill:#007bb9;stroke:none;stroke-width:0.1" />
  <path
     d="m 82.8,11.1 c -0.2,0.6 -1.9,1.2 -3.8,1.4 -5.5,0.4 -5.6,0.5 -4,1.5 1.3,0.8 1.2,1.2 -0.4,2.7 -1.3,1.2 -1.6,1.3 -1,0.3 0.7,-1.3 0.6,-1.3 -1,0 -1,0.8 -2.4,1.5 -3,1.6 -0.6,0 -1.7,0.2 -2.3,0.2 -0.7,0.1 -1.3,0.8 -1.3,1.5 0,0.7 -0.8,1.3 -1.7,1.4 -1,0.1 -2.8,0.4 -4,0.8 -1.8,0.6 -2.1,0.4 -1.6,-1.4 0.3,-1.2 1,-2.1 1.5,-2.1 0.5,0 0.7,-0.4 0.4,-0.9 -0.6,-0.9 -4.2,-0.1 -10.5,2.6 -4.7,2 -5.2,0.7 -1.1,-2.8 3.9,-3.2 3.4,-3.7 -1.3,-1.2 -1.8,0.9 -4.9,1.8 -7,1.9 -4.5,0.2 -7,2.2 -9.6,7.8 -4.2,8.8 -4.6,15.3 -1.7,24.9 0.8,2.7 1.2,5.6 0.9,6.4 -0.4,0.9 0.1,2.1 1.1,2.9 1,0.7 1.5,1.8 1.1,2.4 -0.6,0.9 3.8,9 4.9,9 0.2,0 0,-1.7 -0.6,-3.8 C 35.2,61.9 34.6,53 35.9,53 c 0.6,0 1.1,0.9 1.1,2 0,1.1 0.5,2 1,2 1,0 1.4,-2.1 1.1,-4.8 C 39,51.6 39.4,51 40,51 c 0.5,0 1,0.4 1,1 0,0.5 0.5,1 1,1 0.6,0 1,-0.9 1,-2 0,-1 1.2,-3.6 2.6,-5.7 3.2,-4.8 3.7,-5.2 2.8,-2.8 -0.5,1.5 0,1.3 1.7,-0.8 2.9,-3.3 10.6,-6.3 19.1,-7.2 3.5,-0.4 8.2,-1.5 10.6,-2.5 4.7,-2.1 4.8,-2.1 2.6,2.3 L 80.9,37.5 83,35 85.1,32.5 84.5,35 c -0.5,2.1 -0.4,2.2 0.5,0.7 0.6,-0.9 0.9,-2.1 0.6,-2.6 -0.4,-0.5 -0.2,-2 0.3,-3.3 0.8,-2 1,-2.1 1.6,-0.5 0.4,0.9 0,3.5 -0.9,5.7 -0.9,2.2 -1.3,4 -1,4 1.1,0 3.4,-7.1 3.5,-10.7 0.1,-3.8 0.1,-3.8 0.9,-0.8 0.4,1.6 0.8,2.4 0.9,1.7 0,-0.6 0.6,-1.2 1.1,-1.2 0.6,0 1,2.8 1.1,6.2 0.1,4.3 0.3,5.5 0.8,3.8 0.6,-2.1 0.9,-1.6 1.6,3 0.4,3 1.1,9.3 1.5,14 0.3,4.7 0.8,8.3 0.9,8 0.2,-0.5 2.5,-13.7 3.7,-22 0.4,-2.6 0,-4.6 -1.6,-7.3 C 98.8,31.7 97.4,30 96.8,30 96.3,30 96.1,29.6 96.4,29.1 96.8,28.6 96.6,28 96.2,27.8 95.7,27.7 93.9,24.4 92.1,20.6 88.3,12.5 83.8,8 82.8,11.1 Z m 2.8,4.3 c -0.3,1.4 -1,2.5 -1.4,2.5 -2.1,-0.4 -3.2,0.3 -3.2,1.8 -0.1,1.7 -0.1,1.7 -1.1,0 -1.2,-2.1 -0.1,-4.4 3.2,-6.1 3,-1.6 3.3,-1.3 2.5,1.8 z"
     id="path97"
     style="fill:#007bb9;stroke:none;stroke-width:0.1" />
  <path
     d="m 47.2,14.2 c -7.5,4.2 -5.9,4.5 1.9,0.3 3.5,-1.9 5.7,-3.4 4.9,-3.4 -0.8,0.1 -3.9,1.5 -6.8,3.1 z"
     id="path99"
     style="fill:#007bb9;stroke:none;stroke-width:0.1" />
  <path
     d="m 90,52.1 c 0,0.9 -1.8,1 -6.3,0.6 -6,-0.6 -6.4,-0.5 -9.1,2.3 -4.2,4.5 -3,6.5 4.4,6.7 3.6,0.1 6,-0.2 6,-0.8 0,-0.6 1,-0.9 2.3,-0.7 1.6,0.2 2.2,-0.2 2.1,-1.4 -0.1,-1 0.6,-2 1.6,-2.3 2.7,-0.9 3.2,-3.3 1,-4.5 -1.5,-0.8 -2,-0.8 -2,0.1 z"
     id="path101"
     style="fill:#007bb9;stroke:none;stroke-width:0.1" />
  <path
     d="m 44.3,56.4 c -2.6,1.9 -3,7.3 -0.5,6.8 0.6,-0.1 1.2,0.2 1.2,0.7 0,0.5 1.4,1.1 3,1.3 1.7,0.3 3,0.1 3,-0.3 0,-0.5 0.7,-0.6 1.6,-0.2 1,0.4 2.2,-0.1 3,-1.2 1.1,-1.5 1.6,-1.6 2.9,-0.5 0.8,0.7 2.2,0.9 3.2,0.6 0.9,-0.4 2,-0.1 2.4,0.6 1,1.6 1.6,1 2.4,-2.2 0.5,-2 0,-3.3 -2,-5.4 C 62.1,54 61.6,53.9 54.3,54.2 48.7,54.4 46,55 44.3,56.4 Z"
     id="path103"
     style="fill:#007bb9;stroke:none;stroke-width:0.1" />
  <path
     d="m 56.5,69 c -4.6,1.7 -4.8,1.8 -1.9,1.9 1.8,0.1 4.2,-0.8 5.5,-1.9 2.8,-2.3 2.9,-2.3 -3.6,0 z"
     id="path105"
     style="fill:#007bb9;stroke:none;stroke-width:0.1" />
  <path
     d="m 84,79.7 c 0,0.5 0.5,1.4 1.2,2.1 0.9,0.9 0.7,1.2 -0.9,1.2 -1.2,0 -2.5,0.5 -2.8,1 -1,1.7 -3.5,-0.9 -2.8,-2.8 0.6,-1.5 0.5,-1.5 -1.4,0 -2.1,1.9 -7.8,2.4 -8.8,0.8 -0.3,-0.6 -1.7,-1 -3.1,-1 -1.9,0 -2.4,0.5 -2.4,2.5 0,2 -0.5,2.5 -2.6,2.5 -1.4,0 -2.3,0.4 -1.9,1 0.3,0.5 0.1,1 -0.4,1 -0.6,0 -1.1,-0.7 -1.1,-1.6 0,-0.9 -0.6,-1.4 -1.2,-1.1 -0.7,0.2 -1.2,0.8 -1.2,1.3 0.1,0.5 0.5,2.9 0.9,5.3 l 0.7,4.4 -2.8,-0.7 c -2.5,-0.5 -2.7,-0.5 -1,0.5 1.1,0.7 3.6,1.3 5.5,1.5 2,0.2 5.1,0.7 6.9,1.3 3.8,1.1 3.5,1.1 6.7,1.1 2.6,0 3.5,2.5 1.3,3.3 -0.9,0.3 -0.8,1 0.6,2.6 2.5,2.7 4,2.7 3.2,-0.2 -1.5,-4.9 -1.5,-6 0.1,-8.3 L 78.2,95 h -6 c -3.4,0 -6.4,-0.5 -6.7,-1 -0.4,-0.6 0.7,-1 2.6,-1 3.2,0 8.8,-1.4 12.1,-3.1 2.6,-1.3 2.8,-1.2 4.2,2.3 l 1.4,3.1 0.7,-3.1 c 0.3,-1.7 0.4,-4.1 0,-5.2 -0.5,-1.4 -0.2,-2 0.9,-2 2.6,0 1.8,-2.1 -1.6,-4.9 -1,-0.7 -1.8,-0.9 -1.8,-0.4 z m 1,5.3 c 0,0.5 -0.7,0.7 -1.5,0.4 C 82.7,85 82,84.6 82,84.4 82,84.2 82.7,84 83.5,84 c 0.8,0 1.5,0.4 1.5,1 z m -8,3.5 c 0,1.3 -4.3,2.5 -6.7,1.8 l -2.8,-0.7 3,-0.7 c 3.8,-0.8 6.5,-1 6.5,-0.4 z m -13.2,6.1 c 1.2,0.8 2,1.9 1.7,2.4 -0.8,1.3 -5.5,-1 -5.5,-2.7 0,-1.7 1.1,-1.7 3.8,0.3 z"
     id="path107"
     style="fill:#007bb9;stroke:none;stroke-width:0.1" />
  <path
     d="m 35.9,88.1 c 0.5,1.4 1.2,4.2 1.5,6.1 0.5,3.2 0.3,3.5 -1.3,3.1 -2.1,-0.5 -5.6,3.7 -4.8,5.9 0.2,0.7 0,2.4 -0.4,3.8 -0.8,2.2 -0.5,2 1.9,-0.9 C 39.9,97.2 43.3,94 45.7,94 c 2.5,0 2.5,0 -0.8,-3.5 -1.9,-2 -3.6,-3 -3.9,-2.4 -0.9,1.3 -3.2,0.8 -4.8,-1.1 -1,-1.2 -1.1,-1.1 -0.3,1.1 z"
     id="path109"
     style="fill:#007bb9;stroke:none;stroke-width:0.1" />
  <path
     d="m 93,88.9 c 0,0.6 0.4,1.3 1,1.6 0.6,0.3 0.7,-0.1 0.4,-0.9 C 93.7,87.8 93,87.5 93,88.9 Z"
     id="path111"
     style="fill:#007bb9;stroke:none;stroke-width:0.1" />
  <path
     d="m 95.8,92.7 c 0.7,0.3 1.6,0.2 1.9,-0.1 0.4,-0.3 -0.2,-0.6 -1.3,-0.5 -1.1,0 -1.4,0.3 -0.6,0.6 z"
     id="path113"
     style="fill:#007bb9;stroke:none;stroke-width:0.1" />
  <path
     d="m 99,93.5 c -3,1.1 -5.4,3.5 -3.4,3.5 1.8,0 8.4,-2.4 8.4,-3.1 0,-1.4 -1.5,-1.5 -5,-0.4 z"
     id="path115"
     style="fill:#007bb9;stroke:none;stroke-width:0.1" />
  <path
     d="m 33,95 c 0,0.5 0.5,1 1.1,1 0.5,0 0.7,-0.5 0.4,-1 -0.3,-0.6 -0.8,-1 -1.1,-1 -0.2,0 -0.4,0.4 -0.4,1 z"
     id="path117"
     style="fill:#007bb9;stroke:none;stroke-width:0.1" />
  <path
     d="m 92.1,100 c -0.1,2.5 -0.6,5.4 -1.1,6.5 -0.8,1.8 -0.9,1.7 -0.9,-0.7 -0.1,-1.5 -0.5,-3 -1.1,-3.3 -0.5,-0.3 -1,-1.5 -1,-2.7 0,-1.7 -0.3,-1.8 -1.5,-0.8 -0.8,0.6 -2,2.7 -2.7,4.6 -0.6,1.9 -2.1,3.7 -3.2,4 -3.2,1 -3.6,2.4 -1.5,5.8 1,1.7 1.9,3.7 1.9,4.3 0,2.2 -4.3,1.4 -7.1,-1.3 l -2.8,-2.6 -1.1,4.3 c -0.7,2.4 -2.5,5.5 -4.2,7.1 l -3,2.8 h 6.8 c 4.4,-0.1 7.6,-0.6 8.8,-1.5 1,-0.8 2.3,-1.2 2.9,-0.8 0.6,0.3 0.7,0.1 0.3,-0.6 -0.8,-1.3 6.3,-11 8.1,-11.1 1.9,0 3.5,-6.9 3.1,-13 -0.4,-5.4 -0.4,-5.4 -0.7,-1 z M 73,118 c 0,0.5 -0.5,1 -1.1,1 -0.5,0 -0.7,-0.5 -0.4,-1 0.3,-0.6 0.8,-1 1.1,-1 0.2,0 0.4,0.4 0.4,1 z"
     id="path119"
     style="fill:#007bb9;stroke:none;stroke-width:0.1" />
  <path
     d="m 99.2,97.7 -4.4,1.5 0.7,4.7 c 0.4,2.5 1.6,6.1 2.7,7.8 2.5,4.2 3.4,4.3 1.2,0.2 -2.7,-5.2 0.3,-2.2 5.7,5.7 4.5,6.7 5.4,9.4 3,9.4 -0.5,0 -1.4,-1.4 -2.1,-3 -0.7,-1.7 -1.5,-3 -1.9,-3.1 -0.3,0 -1.4,-0.2 -2.3,-0.4 -2.6,-0.5 -2.2,0.7 1.5,4.3 3.3,3.2 6.7,4.2 6.7,2 0,-0.9 0.3,-0.9 1.2,0 1.2,1.2 10.6,1.6 14.6,0.6 1.2,-0.4 2.2,-1.3 2.2,-2.1 0,-1 -0.6,-1.3 -1.6,-0.9 -1.2,0.4 -1.5,0.2 -1,-0.9 0.3,-0.8 0.9,-2.2 1.2,-3 0.5,-1.3 0.2,-1.4 -2.1,-0.5 -3.3,1.2 -4.2,0.8 -2,-1 1.5,-1.3 2,-4.6 0.9,-7.4 -0.5,-1.2 -1,-1.3 -2.9,-0.4 -1.3,0.6 -2.6,1.8 -2.8,2.7 -0.2,1.1 -0.6,0.7 -1.2,-1.2 -0.4,-1.5 -1.2,-2.6 -1.9,-2.4 -0.6,0.2 -3,-2.9 -5.4,-7 -2.3,-4 -4.6,-7.3 -5,-7.2 -0.4,0 -2.7,0.7 -5,1.6 z m 4.8,1.2 c 0,0.9 -6.1,2.2 -6.9,1.5 -0.5,-0.4 3.9,-2.2 5.7,-2.3 0.6,-0.1 1.2,0.3 1.2,0.8 z"
     id="path121"
     style="fill:#007bb9;stroke:none;stroke-width:0.1" />
  <path
     d="m 22.5,109.9 c -0.3,0.5 0.4,1.3 1.6,1.6 1.3,0.4 1.8,1.2 1.5,2.1 -0.8,2.1 1.2,0.7 2.5,-1.8 1,-1.8 0.9,-2 -0.5,-1.5 -0.8,0.3 -1.8,0.2 -2.1,-0.3 -0.8,-1.3 -2.2,-1.3 -3,-0.1 z"
     id="path123"
     style="fill:#007bb9;stroke:none;stroke-width:0.1" />
  <path
     d="m 20.7,117.7 c -0.4,0.3 -0.7,1.5 -0.7,2.7 0,2 0,2 1.5,0 0.8,-1 1.5,-2.2 1.5,-2.7 0,-0.9 -1.4,-0.9 -2.3,0 z"
     id="path127"
     style="fill:#007bb9;stroke:none;stroke-width:0.1" />
  <path
     d="m 50.9,117.7 c -0.9,0.2 -1.9,1.6 -2.3,3.1 -0.3,1.5 -0.8,3.7 -1.2,4.9 -0.9,3.1 1.3,3 3.7,-0.2 1.2,-1.4 2.6,-2.2 3.4,-1.8 1.1,0.4 1.3,0.1 0.9,-1.1 -0.3,-0.9 -0.1,-1.6 0.5,-1.6 0.6,0 1.1,-0.5 1.1,-1 0,-0.6 -0.7,-1 -1.5,-1 -0.8,0 -1.5,-0.5 -1.5,-1 0,-1 -0.4,-1.1 -3.1,-0.3 z"
     id="path129"
     style="fill:#007bb9;stroke:none;stroke-width:0.1" />
  <path
     d="m 83.4,126.7 c -1.5,1.1 -0.6,1.3 5.6,1.3 5.9,0 7.2,-0.3 6.2,-1.3 -1.7,-1.6 -9.6,-1.6 -11.8,0 z"
     id="path131"
     style="fill:#007bb9;stroke:none;stroke-width:0.1" />
</svg>
